0
SECTION
2
HEADER
9
$INSUNITS
70
4
9
$ACADVER
1
AC1014
9
$HANDSEED
5
FFFF
0
ENDSEC
0
SECTION
2
TABLES
0
TABLE
2
VPORT
5
8
100
AcDbSymbolTable
0
ENDTAB
0
TABLE
2
LTYPE
5
5
100
AcDbSymbolTable
0
LTYPE
5
14
100
AcDbSymbolTableRecord
100
AcDbLinetypeTableRecord
2
BYBLOCK
70
0
0
LTYPE
5
15
100
AcDbSymbolTableRecord
100
AcDbLinetypeTableRecord
2
BYLAYER
70
0
0
ENDTAB
0
TABLE
2
LAYER
5
2
100
AcDbSymbolTable
70
2
0
LAYER
5
50
100
AcDbSymbolTableRecord
100
AcDbLayerTableRecord
2
0
70
0
6
CONTINUOUS
0
ENDTAB
0
TABLE
2
STYLE
5
3
100
AcDbSymbolTable
70
1
0
STYLE
5
11
100
AcDbSymbolTableRecord
100
AcDbTextStyleTableRecord
2
STANDARD
70
0
0
ENDTAB
0
TABLE
2
VIEW
5
6
100
AcDbSymbolTable
70
0
0
ENDTAB
0
TABLE
2
UCS
5
7
100
AcDbSymbolTable
70
0
0
ENDTAB
0
TABLE
2
APPID
5
9
100
AcDbSymbolTable
70
2
0
APPID
5
12
100
AcDbSymbolTableRecord
100
AcDbRegAppTableRecord
2
ACAD
70
0
0
ENDTAB
0
TABLE
2
DIMSTYLE
5
A
100
AcDbSymbolTable
70
1
0
ENDTAB
0
TABLE
2
BLOCK_RECORD
5
1
100
AcDbSymbolTable
70
1
0
BLOCK_RECORD
5
1F
100
AcDbSymbolTableRecord
100
AcDbBlockTableRecord
2
*MODEL_SPACE
0
BLOCK_RECORD
5
1B
100
AcDbSymbolTableRecord
100
AcDbBlockTableRecord
2
*PAPER_SPACE
0
ENDTAB
0
ENDSEC
0
SECTION
2
BLOCKS
0
BLOCK
5
20
100
AcDbEntity
100
AcDbBlockBegin
2
*MODEL_SPACE
0
ENDBLK
5
21
100
AcDbEntity
100
AcDbBlockEnd
0
BLOCK
5
1C
100
AcDbEntity
100
AcDbBlockBegin
2
*PAPER_SPACE
0
ENDBLK
5
1D
100
AcDbEntity
100
AcDbBlockEnd
0
ENDSEC
0
SECTION
2
ENTITIES
0
CIRCLE
5
100
100
AcDbEntity
8
0
100
AcDbCircle
10
16.305102704629149
20
-23.237589461841601
30
0
40
1.25
210
0
220
-0
230
1
0
CIRCLE
5
101
100
AcDbEntity
8
0
100
AcDbCircle
10
-24.194897295370843
20
-8.2375894618416012
30
0
40
1.25
210
0
220
-0
230
1
0
CIRCLE
5
102
100
AcDbEntity
8
0
100
AcDbCircle
10
-24.194897295370843
20
-23.237589461841601
30
0
40
1.25
210
0
220
-0
230
1
0
CIRCLE
5
103
100
AcDbEntity
8
0
100
AcDbCircle
10
38.055102704638607
20
-25.237589461836095
30
0
40
1.6500000000000001
210
0
220
-0
230
1
0
CIRCLE
5
104
100
AcDbEntity
8
0
100
AcDbCircle
10
44.055102704629107
20
-19.237589461841601
30
0
40
1.6500000000000001
210
0
220
-0
230
1
0
CIRCLE
5
105
100
AcDbEntity
8
0
100
AcDbCircle
10
38.055102704701099
20
-13.2375894618374
30
0
40
1.6500000000000001
210
0
220
-0
230
1
0
CIRCLE
5
106
100
AcDbEntity
8
0
100
AcDbCircle
10
3.15510270462915
20
-28.237589461841601
30
0
40
1.6500000000000001
210
0
220
-0
230
1
0
CIRCLE
5
107
100
AcDbEntity
8
0
100
AcDbCircle
10
3.15510270462915
20
-43.237589461841601
30
0
40
1.6500000000000001
210
0
220
-0
230
1
0
CIRCLE
5
108
100
AcDbEntity
8
0
100
AcDbCircle
10
-6.84489729537085
20
-43.237589461841601
30
0
40
1.6500000000000001
210
0
220
-0
230
1
0
CIRCLE
5
109
100
AcDbEntity
8
0
100
AcDbCircle
10
-6.84489729537085
20
-28.237589461841601
30
0
40
1.6500000000000001
210
0
220
-0
230
1
0
CIRCLE
5
110
100
AcDbEntity
8
0
100
AcDbCircle
10
-17.994897295370901
20
-15.687589461841602
30
0
40
1.6500000000000001
210
0
220
-0
230
1
0
CIRCLE
5
111
100
AcDbEntity
8
0
100
AcDbCircle
10
-17.994897295370901
20
-5.6875894618415899
30
0
40
1.6500000000000001
210
0
220
-0
230
1
0
CIRCLE
5
112
100
AcDbEntity
8
0
100
AcDbCircle
10
-40.944897295400899
20
-13.237589461839598
30
0
40
1.6500000000000001
210
0
220
-0
230
1
0
CIRCLE
5
113
100
AcDbEntity
8
0
100
AcDbCircle
10
-40.944897295380393
20
-25.2375894618431
30
0
40
1.6500000000000001
210
0
220
-0
230
1
0
CIRCLE
5
114
100
AcDbEntity
8
0
100
AcDbCircle
10
-46.9448972953709
20
-19.237589461841601
30
0
40
1.6500000000000001
210
0
220
-0
230
1
0
CIRCLE
5
115
100
AcDbEntity
8
0
100
AcDbCircle
10
-1.4448972953708501
20
-11.237589461841601
30
0
40
2.1000000000000001
210
0
220
-0
230
1
0
CIRCLE
5
116
100
AcDbEntity
8
0
100
AcDbCircle
10
-32.994897295370798
20
-5.6875894618415801
30
0
40
1.6500000000000001
210
0
220
-0
230
1
0
LWPOLYLINE
5
117
100
AcDbEntity
8
0
100
AcDbPolyline
90
12
70
1
43
0.0
10
15.389634366100251
20
-11.0141330808726
10
31.256900196843795
20
-13.706109495637859
42
-0.36580511924211573
10
33.755102704637203
20
-16.663844993751994
10
33.755102704638993
20
-21.312876952475701
42
-0.41421356237321172
10
30.755102704639
20
-24.312876952476898
10
23.280349847681098
20
-24.312876952476795
42
-0.33185306811091175
10
19.446375468833217
20
-21.453333204306745
42
0.25465496503032492
10
16.734155267977254
20
-18.75430152619634
10
14.593404701001102
20
-18.128854608179491
42
0.0054124443923401766
10
14.535915430473683
20
-18.1127317277133
42
-0.33923066982139716
10
13.055102704629199
20
-16.181295843622152
10
13.055102704629215
20
-12.98595674628322
42
-0.46433775347799572
0
LWPOLYLINE
5
118
100
AcDbEntity
8
0
100
AcDbPolyline
90
4
70
1
43
0.0
10
5.0768418350639326
20
-9.7250458162653324
42
0.16762467931214606
10
7.0333635741943645
20
-9.7250458162653288
42
-1.402762251945735
10
7.033363574194369
20
-12.750133107417872
42
0.16762467931214634
10
5.0768418350639344
20
-12.750133107417872
42
-1.4027622519457361
0
LWPOLYLINE
5
119
100
AcDbEntity
8
0
100
AcDbPolyline
90
4
70
1
43
0.0
10
1.8991684181544219
20
-17.925555954566075
42
0.13447364929805203
10
2.6536385808668372
20
-16.531616138543757
42
-1.3107326523080265
10
5.367891240596264
20
-18.000705852669473
42
0.1344736492980512
10
4.6134210778838458
20
-19.394645668691787
42
-1.3107326523080249
0
LWPOLYLINE
5
120
100
AcDbEntity
8
0
100
AcDbPolyline
90
4
70
1
43
0.0
10
-7.5032156686255327
20
-19.394645668691798
42
0.13447364929805164
10
-8.2576858313379589
20
-18.000705852669473
42
-1.3107326523080252
10
-5.543433171608541
20
-16.531616138543754
42
0.13447364929805297
10
-4.7889630088961148
20
-17.925555954566072
42
-1.310732652308024
0
LWPOLYLINE
5
121
100
AcDbEntity
8
0
100
AcDbPolyline
90
4
70
1
43
0.0
10
-9.9231581649360638
20
-9.7250458162653288
42
0.16762467931214647
10
-7.966636425805631
20
-9.7250458162653288
42
-1.4027622519457348
10
-7.966636425805631
20
-12.750133107417874
42
0.16762467931214653
10
-9.9231581649360674
20
-12.750133107417875
42
-1.4027622519457363
0
LWPOLYLINE
5
122
100
AcDbEntity
8
0
100
AcDbPolyline
90
4
70
1
43
0.0
10
-8.2576858313379624
20
-4.4744730710137457
42
0.13447364929805253
10
-7.5032156686255416
20
-3.0805332549914204
42
-1.3107326523080272
10
-4.7889630088961166
20
-4.549622969117129
42
0.13447364929805097
10
-5.5434331716085383
20
-5.9435627851394557
42
-1.310732652308026
0
LWPOLYLINE
5
123
100
AcDbEntity
8
0
100
AcDbPolyline
90
4
70
1
43
0.0
10
4.6134210778838405
20
-3.0805332549914208
42
0.13447364929805225
10
5.3678912405962613
20
-4.4744730710137439
42
-1.3107326523080265
10
2.6536385808668417
20
-5.9435627851394557
42
0.13447364929805208
10
1.8991684181544186
20
-4.5496229691171308
42
-1.3107326523080292
0
CIRCLE
5
124
100
AcDbEntity
8
0
100
AcDbCircle
10
-32.994897295370798
20
-15.687589461841602
30
0
40
1.6500000000000001
210
0
220
-0
230
1
0
CIRCLE
5
125
100
AcDbEntity
8
0
100
AcDbCircle
10
16.305102704629149
20
-8.2375894618416012
30
0
40
1.25
210
0
220
-0
230
1
0
CIRCLE
5
126
100
AcDbEntity
8
0
100
AcDbCircle
10
-13.317570641560817
20
-3.81871976257673
30
0
40
1.25
210
0
220
-0
230
1
0
CIRCLE
5
127
100
AcDbEntity
8
0
100
AcDbCircle
10
13.819968435444858
20
-20.776136218039202
30
0
40
1.25
210
0
220
-0
230
1
0
LWPOLYLINE
5
128
100
AcDbEntity
8
0
100
AcDbPolyline
90
54
70
1
43
0.0
10
-13.116065003891588
20
0.84112531174537597
42
0.15391490445823869
10
-11.280618529109837
20
0.26241053815841214
10
-8.7277538777840729
20
0.26241053815841187
42
0.081833543737603279
10
-5.5194470132848439
20
0.79104489939188727
42
-0.30760651460880511
10
8.238091748132657
20
-3.0199424030180726
42
0.00949473992587954
10
8.3887982418642384
20
-3.1908360581113042
42
0.1933916204286884
10
12.68577691676796
20
-5.8645134982649552
10
14.179625224288767
20
-6.1279192599667098
42
0.1474559565585552
10
15.326104107715564
20
-5.9916905889532384
42
-0.30968214417474044
10
18.045798765096478
20
-6.5135021017946908
42
0.11084063898282659
10
18.783551148246726
20
-6.9857659962250276
42
-0.10101887865975401
10
19.806572983107934
20
-7.6129666288501907
42
0.14686372489206953
10
22.898693646644659
20
-9.1437924477433867
10
33.502113846366697
20
-10.942726013102828
42
0.24147850225140183
10
35.242797910295984
20
-10.393131386347223
42
-0.41254974096925673
10
40.883529829434401
20
-10.409162337103901
10
46.883529829386646
20
-16.409162337094404
42
-0.41421356237207013
10
46.883529829386191
20
-22.066016586589253
10
40.883529829381729
20
-28.066016586579529
42
-0.41883474696154777
10
35.182475229819971
20
-28.021114455595658
42
0.20300938154794315
10
33.746161492402003
20
-27.4128769524769
10
16.155102704629098
20
-27.412876952476903
42
0.41421356237309503
10
13.155102704629101
20
-30.4128769524769
10
13.155102704629154
20
-41.737589461841594
42
-0.41421356237309503
10
9.1551027046291509
20
-45.737589461841601
10
5.8215610298238305
20
-45.737589461841601
42
0.16421236744375808
10
5.2155477740977645
20
-45.942134916387047
42
-0.33752637027780708
10
1.0946576351605375
20
-45.942134916387054
42
0.16421236744375842
10
0.4886443794344697
20
-45.737589461841601
10
-4.1784389701761677
20
-45.737589461841601
42
0.16421236744375811
10
-4.7844522259022346
20
-45.942134916387054
42
-0.3375263702778073
10
-8.9053423648394645
20
-45.942134916387054
42
0.16421236744375789
10
-9.5113556205655296
20
-45.737589461841601
10
-13.794897295388381
20
-45.737589461841608
42
0.3178372451957599
10
-16.623324420134484
20
-47.737589461841388
42
-0.3178372451957544
10
-19.451751544880519
20
-49.737589461841168
10
-31.794897295388299
20
-49.737589461841537
42
-0.41421356237310458
10
-34.794897295388381
20
-46.737589461841523
10
-34.794897295388381
20
-32.237589461842781
42
0.41421356237299534
10
-37.794897295387358
20
-29.23758946184277
10
-40.944897295380748
20
-29.23758946184369
42
-0.19891236737958043
10
-43.773324420126407
20
-28.066016586590301
10
-49.773324420125107
20
-22.066016586590006
42
-0.41421356237147916
10
-49.773324420134912
20
-16.409162337103002
10
-43.773324420167484
20
-10.409162337092223
42
-0.19891236738054047
10
-40.944897295400899
20
-9.2375894618243404
10
-37.748580078233175
20
-9.237589461834423
42
0.50985102981206132
10
-35.847106965084443
20
-6.6175894618372872
42
-0.18800486825290863
10
-35.724104162133436
20
-4.4420253814283415
42
0.10214249140993865
10
-35.544016036218181
20
-3.6536293724935405
42
-0.40807855527858028
10
-31.544897295370799
20
0.2624105381584152
10
-25.262344943730213
20
0.26241053815840798
42
0.31366249865312767
10
-22.261900654784085
20
2.3500555381465635
42
-0.49129586388994395
10
-17.426009820586771
20
3.8589857645477532
0
CIRCLE
5
129
100
AcDbEntity
8
0
100
AcDbCircle
10
-25.794897295372472
20
-46.737589461842461
30
0
40
1.25
210
0
220
-0
230
1
0
LWPOLYLINE
5
130
100
AcDbEntity
8
0
100
AcDbPolyline
90
8
70
1
43
0.0
10
-28.794897295388928
20
-29.237589461840294
10
-22.451751544881425
20
-29.237589461838542
42
-0.4142135623730957
10
-20.451751544880871
20
-31.237589461837999
10
-20.451751544877993
20
-41.737589461843015
42
-0.41421356237317569
10
-22.451751544877997
20
-43.737589461843569
10
-28.794897295388374
20
-43.737589461843569
42
-0.41421356237309503
10
-30.794897295388374
20
-41.737589461843569
10
-30.794897295388381
20
-31.237589461840294
42
-0.41421356237301438
0
CIRCLE
5
131
100
AcDbEntity
8
0
100
AcDbCircle
10
-19.261456295368518
20
1.2377005381347139
30
0
40
1.25
210
0
220
-0
230
1
0
ENDSEC
0
SECTION
2
OBJECTS
0
DICTIONARY
5
C
100
AcDbDictionary
3
ACAD_GROUP
350
D
3
ACAD_MLINESTYLE
350
17
0
DICTIONARY
5
D
100
AcDbDictionary
0
DICTIONARY
5
1A
330
C
100
AcDbDictionary
0
DICTIONARY
5
17
100
AcDbDictionary
0
ENDSEC
0
EOF
